 <!DOCTYPE svg PUBLIC "-//W3C//DTD SVG 1.1//EN" "http://www.w3.org/Graphics/SVG/1.1/DTD/svg11.dtd">
<svg id="f266a3dc-7b4d-4478-be59-bb9a0c1f03b6" data-name="Layer 1" xmlns="http://www.w3.org/2000/svg" width="865.76" height="682.89" viewBox="0 0 865.76 682.89">
<defs>
<style xmlns="http://www.w3.org/1999/xhtml">*, ::after, ::before { box-sizing: border-box; }
img, svg { vertical-align: middle; }
</style>
<style xmlns="http://www.w3.org/1999/xhtml">*, body, html { -webkit-font-smoothing: antialiased; }
img, svg { max-width: 100%; }
</style>
</defs>
<g id="a964b5a8-2134-42ec-bf44-04a9e90ce2e6" data-name="freepik--background-simple--inject-652">
<path d="M748.77,147.43S705.32,48.73,609.35,34.12s-163,56.67-233.57,93.24c-37,19.13-79.23,11.76-118.48,21C131.76,177.93,84.46,363.58,136.75,469.25,182,560.64,261.71,608.15,383,619.13s206.43,23.76,315.07-65.8S799.48,277.17,748.77,147.43Z" fill="#0071f2" data-primary="true"/>
<path d="M748.77,147.43S705.32,48.73,609.35,34.12s-163,56.67-233.57,93.24c-37,19.13-79.23,11.76-118.48,21C131.76,177.93,84.46,363.58,136.75,469.25,182,560.64,261.71,608.15,383,619.13s206.43,23.76,315.07-65.8S799.48,277.17,748.77,147.43Z" fill="#fff" opacity="0.6" style="isolation:isolate"/>
</g>
<g id="e731e341-4291-4a6f-8d55-845e61ab4d93" data-name="freepik--Net--inject-652">
<path d="M767.57,205.84q-2-7.53-4.08-14.93l-.76,8.7-36.32-15.05,3.45-37.25L752.42,157c-.63-1.71-1.26-3.39-2-5.08l-20.21-8.62,2.15-24.19c-1.09-1.63-2.25-3.31-3.46-5l-2.42,27.58-32.38-13.88,3.92-33.32q12.18,5.11,24.05,10.21-2.55-3.29-5.39-6.62l-18.17-7.7,1.22-10.29c-1.18-1.12-2.35-2.22-3.57-3.32l-1.41,12q-17.64-7.38-35-14.6l2.68-21.8c-1.21-.69-2.45-1.35-3.7-2L656,72.7c-14.29-5.88-28.3-11.65-41.67-17.09l2.3-20.21c-1.28-.26-2.57-.51-3.92-.73l-2.2,19.41c-13.91-5.67-27.05-11-38.92-15.68l.66-5.75c-1.33,0-2.66.2-3.92.32l-.45,3.92-7.41-3q-3.79.52-7.52,1.23L567.35,41l-3.64,31-42.5-18.35,1.12-10.23L518.21,45l-.76,7.08-8.12-3.47-4.9,2.15L517,56.17l-4.31,39.91L472.15,79.3,473.47,67c-1.4.81-2.81,1.63-4.2,2.47l-.88,8.31-7.62-3.15-4.1,2.55,11.27,4.66-4.45,41.77-38-15.68,1.4-11.45-4.2,2.75-.86,7.07-6.14-2.55-3.92,2.59,9.67,3.92-4.16,34-38.24-16.35.32-2.41-3.42,1.8c-1.29.67-2.58,1.3-3.92,2l2.73,1.18L370.55,163l-35-15.11L337,139.3l-4.08.59-1.06,6.43-11.6-5c-2.76.23-5.53.47-8.31.66l19.27,8.33-5.08,31.15-40-17.11,3.53-20.72-4,.37-3.2,18.76-30.59-13c-2,.55-3.92,1.12-5.88,1.75l1.11.49-6.46,38-27.13-11.31,2.18-13.44c-1.47.88-3,1.8-4.41,2.72l-1.49,9.18-7.34-3c-1.21.9-2.43,1.8-3.6,2.74l10.27,4.24-7.16,44-28.57-11.76,2.6-15c-1.68,2-3.37,3.92-5,5.88l-1.32,7.57-3.49-1.43c-.82,1.07-1.6,2.15-2.41,3.25l5.22,2.14-8.59,49.57-21.17-8.33c-.52,1.19-1,2.39-1.52,3.6l22,8.65-9.12,52.33L122,311.05c-.27,1.3-.52,2.61-.78,3.92l28.64,10.61-10.43,59.9c-8.8-2.16-16.7-4.06-23.52-5.71a30.57,30.57,0,0,0,.18,4.06c6.64,1.61,14.24,3.45,22.69,5.53l-9.66,55.45H126.9c.43,1.31.86,2.64,1.31,3.92h.27v.47c.85,2.45,1.77,4.84,2.71,7.23l1.33-7.59c9.8.3,20.86.77,32.93,1.45l-8.63,53.06c1.06,1.55,2.12,3.1,3.22,4.63l9.35-57.47c8.49.51,17.44,1.14,26.75,2l-12,70.56c-3.92,1-7.2,2-10.12,2.76q3.61,4.22,7.41,8.2c29.5-8,95.91-21.56,183.13-12.82,54.49,5.45,97,22.6,141.71,40.9v.53l2,.24C544.18,577.54,581,592.57,624.35,601q7.56-3.53,15.21-7.62l.51-4.45,4.13,1.82,4.24-2.43-8.06-3.45,3.31-28.28q17.23,7.62,31.74,14.13c1.21-.86,2.45-1.75,3.66-2.65-10.5-4.72-22.19-9.94-34.93-15.56l4.9-41.55,41.62,15.44-3.36,35.36q2.14-1.65,4.26-3.33l2.86-30.7,22.09,8.14,2.86-3.12-24.54-9.11,3.92-41.85,38.08,15-1.39,15.79q2.32-3.28,4.53-6.66l.67-7.62,3.29,1.29c.68-1.14,1.33-2.27,2-3.43l-4.94-2,3.72-42.77,18.72,7.66,1.35-3.68-19.71-8.06,3.62-41.61,27.09,11.29c.29-1.29.59-2.58.84-3.92L749,401.65,752,367.88l29.77,12.74c.15-1.36.29-2.73.43-4.08l-29.83-12.76L755,333.54l29.15,12.6c0-1.41,0-2.82.1-4.23l-28.89-12.49,3.07-35.28,25,10.86c0-1.45-.17-2.92-.27-4.37l-24.36-10.41,3.39-38.53,16.27,6.74c-.24-1.51-.47-3-.73-4.53l-15.19-6.31,3.71-42.34Zm-41.5-60-3.47,37.25-33.32-13.73,4.39-37.24Zm-474,217.68L293.69,379l-7.27,44.55c-14.48-3.92-28.75-7.84-42.59-11.47ZM240,411c-10.84-2.87-21.41-5.61-31.6-8.24l8.88-52.19,31,11.52Zm12.72-51.46,8.52-50.13,41.16,16.21L294.36,375Zm53.39-32.45,40.77,16.07-6.37,49-42.46-15.68Zm.65-3.92,7.84-47.69,39.08,16-6.21,47.71Zm43.88,21.56,40.06,15.79-5.88,48.16-40.53-15.15Zm.53-3.92,6.19-47.67L397,309.39l-5.77,47.24Zm49.55-29.91,41,16.76-5,46.84L395,358.11Zm234.3-69.13-4.21,34-39.56-17.32,3.92-34Zm-39.51-21.15,4.09-36.18,40.44,16.75-4.53,36.54Zm34.81,59.25-3.79,30.15-39.2-16.82,3.49-30.64Zm-43-23-39.43-17,3.92-33.72L591.28,223Zm-.45,4.06-3.47,30.65-39.67-17,3.63-30.78ZM583,295.69,579,331l-39.78-16.56,4.17-35.64Zm-47.63,17.09-40.47-16.86,3.92-36.24,40.79,17.49Zm-.47,4.06L530,359.49l-40.1-16.43,4.67-43Zm-5.41,46.57-5.33,45.39L484.4,393.12l5-46.08Zm-43.41-22L445.91,325l4.62-43.34,40.2,16.74Zm-43.93-18-41-16.7,5.39-43.27,40.22,16.75Zm3.34,5.61,40.16,16.42-5,46.18-40.14-15.82ZM484,397.18l39.71,15.68-5.31,45.33-39.44-14.64Zm43.48,17.19,40.31,15.87-5,44.42L522.15,459.6Zm.49-4L533.25,365l40.06,16.41-5.1,44.73ZM533.72,361l5-42.63L578.58,335l-4.8,42.33Zm48.63-24.37,39,16.23-5.17,41.95-38.58-15.9Zm.45-4,3.92-35.28L626,314.07l-4.29,34.66Zm47-16.8,36.37,15.56-4,34.28-36.62-15.25Zm.51-4.06,3.74-30.32L670.23,297l-3.55,30.24Zm4.23-34.36,4.21-34.06,36,15.34-4,34.25Zm4.72-38.12,4.51-36.51,35.77,14.83-4.35,37.07Zm5-40.59L649.46,157,685,171.66l-4.92,41.79ZM650,152.94l4.66-37.77,35.28,15.09-4.55,37.34Zm-3.77-1.57-40.9-16.93,4.39-38.52,41.16,17.64Zm-.49,4L640.56,197,600.1,180.26l4.75-41.77Zm-49.37,23.28L557,162.39l4.9-41.67,39.2,16.21Zm-.47,4.06-4.1,36.16-39.41-16.83,4.17-35.66Zm-47.28,17.64-41.37-17.64L511,147.47l41.73,17.33Zm-.47,4.06-3.92,33.69-41.12-17.7,3.65-33.59Zm-4.43,37.75L540.09,273l-40.77-17.44,3.37-31.07Zm-44.33-23.52-40.24-17.41L462.69,168l40.39,17.29Zm-.43,4.08-3.37,31.1-40.22-17.21,3.33-31.36Zm-3.83,35.18-3.92,36.28L451,277.48l3.92-36.75Zm-43.53-22.89L412,218.37,415.86,187l39,16.87Zm-.45,4.07-3.92,36.79L407,259.31l4.51-37Zm-47.84,18.49-39.2-16.31L368.94,204l38.81,16.62Zm-.49,4L397.5,305l-39.58-16.11,5.67-43.54Zm-48.67,25.82-38.95-16,7.08-43.24,37.55,15.68ZM311.45,270l-40.67-16.66,7.39-43.43,40.36,16.82Zm-.65,3.92L303,321.66,261.8,305.45l8.2-48.2ZM258.24,304l-31-12.19,8.27-48.69,30.87,12.64Zm-.69,3.92L249,358.15l-31-11.52,8.64-51Zm-43.32,37.24L188,335.38l8.41-51.69,26.52,10.47Zm-.66,3.92-8.94,52.61c-9.13-2.36-17.95-4.59-26.34-6.71l9.05-55.62Zm-5.88,57.47c10.17,2.62,20.73,5.37,31.59,8.23L233,451.92c-11.11-1.25-22-2.31-32.46-3.19Zm35.4,9.23c13.83,3.66,28.1,7.51,42.61,11.48l-5.1,31.21c-14.74-2.43-29.4-4.43-43.73-6.12Zm46.41,12.52c14.72,4.06,29.65,8.25,44.59,12.55l-3.49,27.65c-15.13-3.58-30.6-6.66-46-9.27Zm.63-3.92,7.23-44.2L339.93,396l-5.33,40.91c-14.78-4.14-29.68-8.31-44.38-12.35Zm53.56-27,40.6,15.08-4.61,37.73C366,446.08,352.24,442,338.42,438Zm44.36,16.47,42.63,15.81L426.9,465c-14.06-4.59-28.62-9.18-43.42-13.72Zm.49-3.92,5.88-48.08,41.75,16.44-5.06,47.44Zm45.94,21.3,40.16,14.92-3.7,34.1c-12.76-4.58-26.23-9.21-40.2-13.82Zm.43-4L440,379.89l40.14,15.84-5,46.43Zm43.51,20.33,39.4,14.64-4.08,34.64-5.19-2.12c-10.43-4.29-21.74-8.65-33.73-13Zm43.13,16,40.57,15.08L558,515.31q-19.59-8.23-40.51-16.92Zm44.35,16.49,37.81,14-4.59,38.69q-17.79-7.68-37.24-15.89Zm.47-3.92,5-44.36,38.14,15.05-5.35,43.36Zm5.49-48.38L577.07,383l38.56,15.68-5.43,44Zm47.39-27.44,37,15.13L651.08,459l-37.24-14.68Zm.51-4,5.16-41.87,36.65,15.27-4.9,41.71Zm45.71-25.09,38.16,15.89L699.71,429l-39.2-16Zm.47-4.06L670,333l37.24,15.91L704,383Zm4.51-38.3L674,298.67l36.39,15.68-2.82,30.36Zm4-34.28,4-34.36L714,275.42l-3.18,34.81ZM679,256.19,683.4,219,718,233.38l-3.59,37.91ZM683.82,215l4.92-41.75L722.23,187l-3.92,42.19ZM659.18,78.4c11.62,4.82,23.36,9.7,35,14.62l-3.92,33.22L655.1,111.17Zm-45.4-18.64c13.37,5.45,27.44,11.19,41.63,17.09l-4,32.71L610.22,91.92ZM571.07,42.45c11.92,4.81,25,10.12,38.95,15.68l-3.65,32.05-38.94-16.7ZM567,77.73l39,16.7L601.53,133l-39.2-16.23ZM520.72,57.8,563.14,76l-4.59,39.2L516.39,97.71ZM516,101.69l42.12,17.44-4.9,41.67-41.75-17.33ZM471.72,83.36l40.52,16.78-4.53,41.78-40.46-16.77Zm-4.9,45.82L507.28,146l-3.83,35.28L463.12,164ZM425,111.86l38,15.78-3.71,34.69-38.47-16.49Zm-4.64,38.08,38.51,16.47-3.54,33.32-39-16.86Zm-42-17.95,38.28,16.34-3.92,33-38.52-16.64Zm-4.77,36.71,38.54,16.66-3.92,31.36-38.81-16.6Zm-38.82-16.8,35.08,15.17-4.1,31.36-36.08-15.34ZM329,187l36.2,15.5-4.86,37.42-37.41-15.68Zm-43.73-18.7,40,17.11-6.1,37.24-40.33-16.8Zm-34.49-14.76,30.77,13.17-6.39,37.67-30.81-12.84Zm-7.14,42,30.83,12.84-7.38,43.47-30.87-12.64Zm-30.81-12.84L239.93,194l-7.33,43.69-26.83-11Zm-7.84,48,26.8,11-8.28,48.75L197,279.89Zm-32.34-13.23,28.62,11.76-7.88,49.24-29.21-11.5Zm-9.29,53.43,29.24,11.53-8.42,51.76-29.91-11.09ZM153.57,327l30,11.13-9.13,56.06c-11.24-2.82-21.68-5.41-31.19-7.74Zm12.35,119.42c-12-.68-23.09-1.15-32.89-1.47l9.53-54.64c9.5,2.35,20,4.94,31.22,7.84Zm3.92.22L177.68,399c8.39,2.12,17.19,4.35,26.3,6.7l-7.27,42.81c-9.31-.82-18.29-1.39-26.83-1.9Zm18.29,75.32,11.76-69.22c10.46.88,21.32,2,32.43,3.19l-10,59.15c-13.37,2.18-24.83,4.61-34.07,6.88Zm38.31-7.6,9.8-58.06c14.33,1.69,29,3.71,43.77,6.12l-7.68,47C255.34,510.58,240,512.37,226.44,514.33Zm50-5.14L283.93,463c15.49,2.63,31,5.71,46.16,9.31l-4.72,36.3c-17.49-.47-33.87-.19-49,.63Zm95.82,2.88c-2.25-.27-4.49-.56-6.78-.78-12.51-1.25-24.56-2.06-36.14-2.51l4.62-35.49q10.06,2.46,19.86,5.25c6.86,2,14.13,4.17,21.73,6.58Zm-17.36-37.24c-6.71-2-13.55-3.7-20.43-5.39L338,442c13.86,4,27.68,8.1,41.3,12.23L376,481.16C368.62,478.91,361.55,476.75,354.87,474.83ZM421,521.44a369.88,369.88,0,0,0-44.87-8.84l3.2-26.18c13.72,4.45,28.46,9.52,43.8,15.05Zm-41.16-39,3.25-26.93c14.84,4.53,29.4,9.11,43.49,13.72l-3,28.26c-15.32-5.57-30-10.62-43.76-15.05Zm85.24,52.92c-13-4.72-26.29-9.12-40.2-12.9l2.07-19.6c13,4.73,26.45,9.8,40,15Zm-37.69-36.52,3-28.38c14,4.63,27.44,9.25,40.2,13.86l-3.19,29.4c-13.64-5.17-27.07-10.19-40.08-14.92Zm80,53.08c-12.62-5.15-25.48-10.31-38.53-15.19l2-17.44c12.84,4.94,25.79,10,38.67,15.19Zm-36.2-36.67,3.2-29.56C486,490,497,494.18,507.12,498.33l6.27,2.59-3.47,29.54C497,525.27,484,520.21,471.17,515.23ZM552,569.7c-13.72-5.12-27-10.57-40.14-16l-.64-.25L513.23,536c13.73,5.5,27.45,11.07,40.68,16.54ZM513.67,532l3.45-29.5q20.94,8.68,40.51,16.93l-3.29,29.11C541.05,543,527.41,537.44,513.67,532Zm79.14,51.39c-12.8-3.66-25.11-7.84-37.1-12.25l2-17c12.72,5.25,25.09,10.42,36.87,15.4ZM558.1,550,561.39,521q19.41,8.22,37.24,15.88l-3.53,28.62c-11.89-5-24.26-10.18-37-15.45Zm77.36,43.12a385,385,0,0,1-38.83-8.64l1.65-13.33c13.54,5.74,26.28,11.19,37.87,16.19Zm1.16-9.8c-11.59-5-24.31-10.45-37.85-16.17l3.55-28.58c13.33,5.77,25.91,11.25,37.63,16.43Zm3.8-32.4q-17.64-7.73-37.61-16.4l4.8-38.89,37.67,14Zm5.33-45.31-37.63-14,5.33-43.26,37.24,14.68Zm45.3,16.81L649.53,507l5-42.46L695,480.52Zm4.27-46L655,460.57l5.12-43.5,39.2,16.05Zm41.87,16.31-38.11-15,4-43.25L740.87,450Zm4.07-46.91-37.73-15.44,3.92-41.79,37.48,15.68Zm3.92-45.72-37.45-15.58,3.17-34.15,37.24,15.92Zm3.32-37.91-37.24-15.91L714.08,316l37.12,16.1Zm3-34.38-37-16L717.74,277l36.81,15.68Zm3.42-39.2L718.14,273l3.52-37.92,36.6,15.19Zm3.72-42.55L722,230.91l3.92-42.2,36.35,15Z" fill="#fff"/>
</g>
<path d="M137.06,498.41c.17,6-5.1,10.52-9.58,13.25a27.2,27.2,0,0,1-9.38,3.41,26.28,26.28,0,0,0-11.87,5.39c-1.24,1.32-3,3.15-4.74,4.9a39.73,39.73,0,0,1-16.91,10.35c-20.32,6-21.27-11-21.27-11-1.1-7.8,3.44-14.68,10.09-20.43l0,0,0,0c11-9.45,27.64-15.82,34.22-18.1a29,29,0,0,1,5.35-1.29l11.29-1.62Z" fill="#2f2e41" data-secondary="true"/>
<path d="M137.06,498.41c.17,6-5.1,10.52-9.58,13.25a27.2,27.2,0,0,1-9.38,3.41,26.28,26.28,0,0,0-11.87,5.39c-1.24,1.32-3,3.15-4.74,4.9a39.73,39.73,0,0,1-16.91,10.35c-20.32,6-21.27-11-21.27-11-1.1-7.8,3.44-14.68,10.09-20.43-.57.68-14.36,17.38.73,25.69a8.76,8.76,0,0,0,7.43.49,66.19,66.19,0,0,0,8.7-4.35A9.93,9.93,0,0,0,92.82,524a30.06,30.06,0,0,1,10.18-7.4,13.83,13.83,0,0,0,3.91-2.73,28.84,28.84,0,0,1,16.89-8.39S132,504.33,137.06,498.41Z" opacity="0.1" style="isolation:isolate"/>
<polygon points="527.41 405.04 528.86 407.88 533.32 407.93 535.54 405.55 536.3 401.56 527.41 405.04" fill="#0071f2" data-primary="true"/>
<polygon points="527.41 405.04 528.86 407.88 533.32 407.93 535.54 405.55 536.3 401.56 527.41 405.04" opacity="0.1" style="isolation:isolate"/>
<path d="M530.68,410.05s-3.88-.14-4.71,1.66c0,0-4.09,4.57-8.07,0,0,0-2.86-1.61-4.11,2a5.89,5.89,0,0,1-4.44,4.65,11.69,11.69,0,0,0-5.86,3.13c-4.25,4.38-12.51,12.07-18.84,13.1,0,0-2.08-.41-11,9.35,0,0-3.73,3.74-13.29,8.72,0,0-3.32,1.45-6.85,6.23,0,0-1.45,5.6-14.12,7.89,0,0-7.9,2.7-12.67,7.88a20.64,20.64,0,0,1-8.44,3.19s-6.65,1.39-16.34,21.87c0,0-11.9,33-21.59,14.4,0,0-.95-1.43-2.6-3.83h0c-6.33-9.21-22.94-32.57-36-43.49h0c-1.1-.92-2.18-1.77-3.23-2.49l-13.83-11.63s-28.83-23.26-22.82-32.38a5.85,5.85,0,0,1,1.77-1.68s6.09-5,22.15-7.48c0,0,11.36-3,25.48-14.12a170.9,170.9,0,0,1,23.53-19.65s7.2-9.69,23.25-21.32c0,0,.55-8,9.14-18.83,0,0,.7-6.23,10.66-9.69,0,0,7.06-2.77,4.57-6.36,0,0-6.51-5.82-2.77-8.87,0,0,1.52-1.66,5-1.52,0,0,2.49-.55,2.08-4s.83-10.25,13.71-5.68c0,0,20.24,6.79,30.19,13.77,3.52,2.47,5.75,5,5.32,7.2,0,0-.21,2.7-3.53,4.36,0,0-1.89,2.51,1.87,6l3.08,4-5.79,3.5L498.67,367s.31,2.4,5.29,0,7.62-1,7.62,1.07c0,0,.82,1.68,2.34-1.16,0,0,3.74-5.06,8.45,2.83h0a11.38,11.38,0,0,0-1.61.53l-.09,0-.4.16-.58.27a8.4,8.4,0,0,0-4.15,3.73,4.14,4.14,0,0,0-.2.43,2.85,2.85,0,0,0-.17.46c0,.13-.08.26-.12.39a5.88,5.88,0,0,0-.2,1.26,7.26,7.26,0,0,0,.46,3.1h0a30.07,30.07,0,0,0,.75,4.47l.21.83a45.24,45.24,0,0,0,10.16,18.77,11.54,11.54,0,0,0,1,.81c2.22,1.57,7.31,4.24,8.49-3.07l1-.36S539,409.22,530.68,410.05Z" fill="#0071f2" data-primary="true"/>
<path d="M514.83,378.17a9.11,9.11,0,0,0,.43,2h0a7.26,7.26,0,0,1-.46-3.1A7.11,7.11,0,0,0,514.83,378.17Z" fill="#0071f2" data-primary="true"/>
<path d="M519.64,370.78a9.12,9.12,0,0,0-4.15,3.73A8.4,8.4,0,0,1,519.64,370.78Z" fill="#0071f2" data-primary="true"/>
<path d="M514.83,378.17s-1.41-8.07-5.44-2.81c0,0-1.93,2.49-3.59,8.45A9.39,9.39,0,0,1,503.58,372s-3.55-1.8-7.31,5.88l-3.48,6.86s-1.46-6.94-4.33-9.24a2.68,2.68,0,0,0-4,.9c-2.21,4-10,16.82-21.17,17.27a7.52,7.52,0,0,1-7.64-9.47,18.22,18.22,0,0,1,1.39-3.48s5.4-9.83,2.22-12.46c0,0-1.39-.69-5.54,3.88a49.87,49.87,0,0,1-13.82,10.36c.66-.46,13-9.3,8.56-16,0,0-2.91-2.35-12.18,4.15A79.72,79.72,0,0,1,409,375s26.69-4.56,23.52-9.76c0,0-2.55-1.24-11.27,2.29a55.81,55.81,0,0,1-15.77,0c-2,4.56,37.7-4.39,44.36-17.71a2.71,2.71,0,0,0-2.09-3.83c-2.42-.35-6.91-.56-15.23-.06,0,0-10.64.63-17.7-2.69,0,0,39.86,2.28,39.24-5,0,0,.42-2.9-10.59-5,0,0-13.07-3.64-19.51-13.75.63.44,24.42,16.82,36.21,10.65,0,0,2-3.53-6.52-4.37,0,0-6.79-.51-15.67-6,1.21.62,4.72,1.92,12.59,1.68A51,51,0,0,0,466,323.8s3.74,1.81,2.84-3.31a8.24,8.24,0,0,1,1.76-5.62c3.53,2.47,5.76,5,5.32,7.2,0,0-.2,2.71-3.52,4.36,0,0-1.89,2.51,1.87,6l3.08,4-5.79,3.5L498.67,367s.31,2.39,5.29,0,7.62-1,7.62,1.06c0,0,.82,1.69,2.34-1.16,0,0,3.74-5.06,8.45,2.83C522.37,369.77,514.18,371.61,514.83,378.17Z" opacity="0.1" style="isolation:isolate"/>
<path d="M471.56,339.93s12.76-6.68,13.09-11.44a8.68,8.68,0,0,0,.3-3.61s.94,3.84,3.81,5l16,30.35s-3.84,5.68-7,7.48c0,0-15.65,5.12-21.6-5.81C476.13,361.88,471.29,356.2,471.56,339.93Z" fill="#f9b499"/>
<path d="M504.75,360.21s-5.66-1.49-8.48-4.74c0,0,2.84,6.13-1.59,3.91,0,0-4.57,1.8-5.95.83,0,0-1.43-2.21-.58-6.5,0,0-4.27,5.54-5.1,9,0,0-.95-2.87,1.31-7.1a23.52,23.52,0,0,0,2.33-6.08c.64-3,1.15-7,.24-10.08,0,0,.19,5.54-2.81,9.27,0,0-6.8,9.81-6.77,15,0,0,5,8.39,20.38,4C497.73,367.69,501.12,365.75,504.75,360.21Z" fill="#f7a48b"/>
<ellipse cx="515.26" cy="328.49" rx="33.5" ry="25.41" transform="translate(10.4 672.76) rotate(-66.81)" fill="#f9b499"/>
<path d="M479.18,334.74s6.54-3,5.77-9.86l9.22-13.42a12.49,12.49,0,0,1,1.3,2.75s-1.27,6.31,2,3.92c0,0,10.38-17.24,22.84-19.1,0,0,4.15-2.08,10.38,3.94,0,0,.47,1.4,2.9,2.72a13.78,13.78,0,0,1,6,6.61,45.11,45.11,0,0,1,2.31,6.49s7.92-8.14,1.9-15.4c0,0,.41-6.23-6-10.59,0,0-6.43-10.18-14.95-6.65,0,0-7.06,1.46-9.13,1,0,0-8.93-4.15-12.67,1.45a22.71,22.71,0,0,1-8.31,3.74,7.74,7.74,0,0,0-5.81,4.57l-5,6.23s-6.67,7.09-3.15,16.71a8.32,8.32,0,0,1,.53,2.2c.17,1.9.21,5.48-1.55,7.25C477.78,329.34,475.37,333.5,479.18,334.74Z" fill="#2f2e41" data-secondary="true"/>
<path d="M622,320.69s-.22.6-.64,1.67c-.2.54-.45,1.19-.74,1.95a1.12,1.12,0,0,1-.05.13c-3.88,9.92-14.59,36.66-21,45.33v0l0,.15a4,4,0,0,1-.14.4,13.23,13.23,0,0,1-.68,1.54c-.21.38-.46.8-.76,1.26s-.61.87-1,1.34c-2.17,2.73-6.08,6.07-13,8.41l-47,18.71-1,.36L527.43,405a11.54,11.54,0,0,1-1-.81,45.24,45.24,0,0,1-10.16-18.77l-.21-.83c-.3-1.41-.56-2.89-.75-4.46v0l0,0a7.3,7.3,0,0,1-.44-3.06,5.88,5.88,0,0,1,.2-1.26c0-.11.07-.24.11-.35s.12-.36.2-.55.12-.25.18-.38a8.4,8.4,0,0,1,4.15-3.73l.58-.27.4-.16.09,0c.49-.19,1-.36,1.57-.53h.17a78.63,78.63,0,0,0,9-.95,40.05,40.05,0,0,0,6.92-1.74h0s11-10.55,25.72-9.89c0,0,13.28,1.05,16.12-8.67a24.86,24.86,0,0,1,1.49-4A88.18,88.18,0,0,1,589,332.56l4.12-6.11c.16-.23.3-.46.46-.67l8.6-12.77.68.51a47.07,47.07,0,0,0,11.11,6l.09,0A17.75,17.75,0,0,0,622,320.69Z" fill="#f9b499"/>
<path d="M622,320.69s-.22.6-.64,1.67c-.19.53-.44,1.19-.74,1.95a1.12,1.12,0,0,1-.05.13c-3.93,10.15-15,37.91-21,45.33v0l0,.15a4,4,0,0,1-.14.4,10.48,10.48,0,0,1-.68,1.54,13.6,13.6,0,0,1-.76,1.26c-.28.42-.61.87-1,1.34-2.17,2.68-6.07,6-13,8.41l-47,18.71-1,.36L527.43,405a11.54,11.54,0,0,1-1-.81,45.24,45.24,0,0,1-10.16-18.77l-.21-.83c-.3-1.41-.56-2.89-.75-4.46v0l0,0a8.23,8.23,0,0,1-.13-4.67c.06-.18.12-.36.2-.55.76-2,2.67-4.05,7-5.11h.17a52.94,52.94,0,0,0,9-.95,55.42,55.42,0,0,0,6.93-1.75h0c-.26.16-4.38,2.7-4.38,4.83,0,0-3.3-2.86-5.5,0,0,0-11,8.79-3.08,16.92,0,0,3.68,3.83,12,1a7.55,7.55,0,0,0,4.78-9.69s0-.06,0-.1c.28.23,4.93,4,21.74,5.05,0,0,8.13.21,7.92-4.63,0,0-.66-2.12-7.69-1.5,0,0-5.49,1.95-12.29-4.42.36.16,7.4,3.25,13.83,2,0,0,8.34-1.1,12.08,1.54,0,0,7.47,3.82,15.39-9.08,0,0,13.18-18.62,17.36-36.19,0,0,1.94-12.78-4.39-14.51,0,0-4.66-4-12.57,7.5l8.6-12.77.68.51a42.83,42.83,0,0,0,11.11,6l.09,0A19.58,19.58,0,0,0,622,320.69Z" fill="#f7a48b"/>
<path d="M539,248.26,520.3,263.84a215.55,215.55,0,0,1-19.12,13.22c-8.73,3.78-11,9.44-11,9.44-3.66,11.8-15.46,23.57-15.46,23.57-7.21,6.9-5.9,10.42-5.9,10.42.71,4.49-2.84,3.31-2.84,3.31-23.83-.66-33.52-12.51-33.52-12.51l3.34-4.63,5.87-8.12c11.57-23.85,32.58-36.82,32.58-36.82,5-11.1,11.45-9.68,11.45-9.68,10.51-5.44,42.37-19.6,42.37-19.6a29.76,29.76,0,0,0,2.82,6.35A34.85,34.85,0,0,0,539,248.26Z" fill="#f9b499"/>
<path d="M539,248.26,520.3,263.84a215.55,215.55,0,0,1-19.12,13.22c-8.73,3.78-11,9.44-11,9.44-3.66,11.8-15.46,23.57-15.46,23.57-7.21,6.9-5.9,10.42-5.9,10.42.71,4.49-2.84,3.31-2.84,3.31-23.83-.66-33.52-12.51-33.52-12.51l3.34-4.63s10.49,16.35,25,14.54c0,0,6.6.95,10.73-15.57,0,0,11.95-10.7,14.06-24.5a.91.91,0,0,0-1.18-1c-1.13.42-3.23,1.93-7.07,6.36.2-.41,7.12-13.54,26.18-19.82,0,0,22.39-9.5,27.37-27.88A34.85,34.85,0,0,0,539,248.26Z" fill="#f7a48b"/>
<path d="M569,233.35c-.11.41.24.83,1.27,1.23,0,0,17.22,4.86,16,11.95,0,0-.81,2.23-9.53-1.83a29.18,29.18,0,0,0-10.74-1s-9.73.62-12-2.83l-1.29.63-12.19,6-1.63.8a34.75,34.75,0,0,1-10.86-15.82s-2.81-2.93,2.66-4.75l9.94-4.87s2.83-4.66,12.77-12c0,0,16-18.24,20.06-16.42a2,2,0,0,1,.63,1.63c.05,1.1-.41,2.84-2.25,5.46l-6.42,6.6a4.22,4.22,0,0,0-1.17,2.27,1.07,1.07,0,0,0,.15.88h0c.35.36,1.32.13,3.58-1.65,0,0,13.18-13.57,17.64-10.94a2.5,2.5,0,0,1,.32,1.38c0,1.13-.7,2.92-3.57,5.1l-10.53,8.2s-2.64,2.14-.61,3.36c0,0,1.27,1,3.91-1.46A35.45,35.45,0,0,1,581,210.9c5.22-3.08,13.89-7.62,15.84-5.1,0,0,2,2.43-3.23,6.27L576.36,222s-.83,1.23-.34,1.64c.19.18.6.21,1.35,0,0,0,23.51-10.33,22.5-4.87,0,0,4.86,4.46-22.3,11.15C577.57,229.91,569.43,231.63,569,233.35Z" fill="#0071f2" data-primary="true"/>
<path d="M574.15,196.07c-1.64-.14-3.58,1.6-3.58,1.6l-16.51,15.11s-5.42,5.62-8.35,7.63-.54,4.67-.54,4.67l8.89,15.78-1.29.63-9.34-16c-1.47-2.15-4.48,0-4.48,0L530.72,230c-4,3.07,9.86,17.43,9.86,17.43l-1.63.8a34.75,34.75,0,0,1-10.86-15.82s-2.81-2.93,2.66-4.75l9.94-4.87s2.83-4.66,12.77-12c0,0,16-18.24,20.06-16.42A2,2,0,0,1,574.15,196.07Z" opacity="0.1" style="isolation:isolate"/>
<path d="M586,200.08c-2.1-1.6-5.4.8-5.4.8l-10.15,8.56c-4.89,4.76-5.92,2.07-6,1.85.35.36,1.32.13,3.58-1.65,0,0,13.18-13.57,17.64-10.94A2.5,2.5,0,0,1,586,200.08Z" opacity="0.1" style="isolation:isolate"/>
<path d="M596.82,205.8c-3.7-.44-10.07,3.77-10.07,3.77l-8.28,5.22c-7.76,5.74-7.18,2-7.18,2s1.27,1,3.91-1.46A35.45,35.45,0,0,1,581,210.9C586.2,207.82,594.87,203.28,596.82,205.8Z" opacity="0.1" style="isolation:isolate"/>
<path d="M599.87,218.76c-2.54-1.91-15.26,3.52-15.26,3.52-8.55,4.37-8.59,1.37-8.59,1.37.19.18.6.21,1.35,0C577.37,223.63,600.88,213.3,599.87,218.76Z" opacity="0.1" style="isolation:isolate"/>
<path d="M586.29,246.53c-4.08-7.16-14.25-8.48-14.25-8.48-7.35-2.14-3-4.7-3-4.7-.11.41.24.83,1.27,1.23C570.28,234.58,587.5,239.44,586.29,246.53Z" opacity="0.1" style="isolation:isolate"/>
<path d="M615.44,282.5c-.41.12-.85-.21-1.28-1.22,0,0-5.55-17-12.59-15.51,0,0-2.2.9,2.21,9.44a29.3,29.3,0,0,1,1.44,10.7s-.22,9.74,3.31,11.83l-.57,1.32-5.49,12.42-.73,1.65A34.71,34.71,0,0,0,618,323.35s3,2.69,4.65-2.85l4.46-10.12s4.54-3,11.44-13.24c0,0,17.59-16.73,15.6-20.7a2,2,0,0,0-1.65-.57c-1.1,0-2.82.52-5.37,2.47L640.77,285a4.12,4.12,0,0,1-2.22,1.27,1.13,1.13,0,0,1-.88-.11h0c-.37-.35-.18-1.32,1.5-3.65,0,0,13-13.71,10.22-18.06a2.46,2.46,0,0,0-1.38-.27c-1.13.09-2.9.82-5,3.77l-7.77,10.85s-2,2.72-3.33.75c0,0-1-1.23,1.3-4a35.19,35.19,0,0,0,4.14-5.95c2.87-5.34,7.07-14.19,4.47-16,0,0-2.51-1.94-6.14,3.48l-9.24,17.62s-1.2.87-1.63.4c-.18-.19-.23-.59,0-1.36,0,0,9.38-23.9,4-22.66,0,0-4.65-4.69-10.25,22.72C618.52,273.81,617.13,282,615.44,282.5Z" fill="#0071f2" data-primary="true"/>
<path d="M652.48,275.87c.2,1.63-1.46,3.64-1.46,3.64l-14.44,17.11s-5.39,5.63-7.28,8.65-4.65.72-4.65.72l-16.12-8.25-.57,1.32,16.36,8.69c2.2,1.38.18,4.47.18,4.47l-4.22,8.4c-2.9,4.14-17.81-9.14-17.81-9.14l-.73,1.65A34.71,34.71,0,0,0,618,323.35s3,2.69,4.65-2.85l4.46-10.12s4.54-3,11.44-13.24c0,0,17.59-16.73,15.6-20.7A2,2,0,0,0,652.48,275.87Z" opacity="0.1" style="isolation:isolate"/>
<path d="M648,264.19c1.68,2-.59,5.43-.59,5.43l-8.14,10.49c-4.56,5.07-1.84,6-1.61,6.06-.37-.35-.18-1.32,1.5-3.65,0,0,13-13.71,10.22-18.06A2.46,2.46,0,0,0,648,264.19Z" opacity="0.1" style="isolation:isolate"/>
<path d="M641.85,253.61c.58,3.68-3.37,10.21-3.37,10.21l-4.88,8.49c-5.43,8-1.66,7.25-1.66,7.25s-1-1.23,1.3-4a35.19,35.19,0,0,0,4.14-5.95C640.25,264.3,644.45,255.45,641.85,253.61Z" opacity="0.1" style="isolation:isolate"/>
<path d="M628.77,251.09c2,2.46-2.9,15.38-2.9,15.38-4,8.72-1,8.64-1,8.64-.18-.19-.23-.59,0-1.36C624.81,273.75,634.19,249.85,628.77,251.09Z" opacity="0.1" style="isolation:isolate"/>
<path d="M601.57,265.77c7.32,3.78,9,13.89,9,13.89,2.43,7.26,4.83,2.84,4.83,2.84-.41.12-.85-.21-1.28-1.22C614.16,281.28,608.61,264.27,601.57,265.77Z" opacity="0.1" style="isolation:isolate"/>
<path d="M530.68,410.05s-3.88-.13-4.71,1.66c0,0-4.09,4.57-8.07,0,0,0-2.87-1.61-4.12,2a5.89,5.89,0,0,1-4.43,4.66,11.62,11.62,0,0,0-5.86,3.13c-4.25,4.38-12.51,12.06-18.84,13.1,0,0-2.08-.42-11,9.34,0,0-3.73,3.74-13.29,8.72,0,0-3.32,1.45-6.85,6.23,0,0-1.45,5.6-14.12,7.89,0,0-7.9,2.7-12.67,7.89a20.81,20.81,0,0,1-8.44,3.19s-6.65,1.38-16.34,21.87c0,0-11.9,32.94-21.59,14.4,0,0-22.13-33.56-38.59-47.34h0a15.35,15.35,0,0,0,5.18,1,2.94,2.94,0,0,0,2-4.94c-2.64-2.85-8.76-8.05-21.39-13.14,0,0,27.53,4.49,35.32,18.08,0,0,18,25.52,32.88,17.24,0,0,3.65-2.68-2.92-4.63,0,0-17.9-6.73-28.55-19a44.87,44.87,0,0,0-16.16-11.72c-4.57-2-9.77-3.61-14.47-3.61,0,0,19.72-5.6,36,7.55,0,0,25.33,15.35,30.69,10.48,0,0,1.91-2.46-4-3.49a39.58,39.58,0,0,1-10.92-3.55c-6.42-3.2-16-8.39-21.35-13.43a43.77,43.77,0,0,0-10-7.19A61.8,61.8,0,0,0,338.46,431s15.77,1.42,30,9.79l1.2.75c3.48,2.19,70.89-3.71,81.36-23,0,0,4.76-11.09,5.53-18-.43,5.4-2.59,37.83,8.36,36.27,0,0,5.84,1,9.49-16.81l3-12.66S480,418.8,487,413.93a13.06,13.06,0,0,0,4-8.89s-.85-12.79,6.7-23.27c0,0-10,25.34,1.94,26.56,0,0,5.74,1.46,5.06-7.07,0,0-.19-9.25,2-12.91,0,0-1,8,1,9.74,0,0,.95-20,7-8.51C514.78,389.58,521,405.93,530.68,410.05Z" opacity="0.1" style="isolation:isolate"/>
<path d="M437.7,319.7l-.22-.14A1.64,1.64,0,0,1,437.7,319.7Z" fill="none" stroke="#ed1c24" stroke-miterlimit="10" stroke-width="0.25"/>
<path d="M325.79,411.16s9-.28,32.23,13.55c0,0,32.14,20.55,67.32,0,0,0-46.37,10.78-57.35-6.3l24.07.15A60.68,60.68,0,0,0,417,413.47c6.7-3,14.38-7.4,20.39-13.77,0,0-25.45,15-56.77,11.68a37.19,37.19,0,0,1-6.18-1.25C367.62,408.21,347.52,403.78,325.79,411.16Z" opacity="0.1" style="isolation:isolate"/>
<path d="M393.62,422.68s26.23-2.37,37.83-13C431.45,409.7,421.07,434.07,393.62,422.68Z" fill="#fff" opacity="0.1" style="isolation:isolate"/>
<path d="M379,436.71s30.71,9.77,55.53-10.17C434.5,426.54,416.88,457.64,379,436.71Z" fill="#fff" opacity="0.1" style="isolation:isolate"/>
<path d="M330.43,445.53s-12.48-7.86-4.16-7.86l23.12,2.77s-24.52-9.27-21.82-15.59a2.83,2.83,0,0,1,2.35-1.61c2.26-.22,7.84-.17,18.2,3.3l10.75,3.5S327.3,404,307,421.92a5.53,5.53,0,0,0-1.43,6.25c1.31,3.09,4.95,7.58,14.54,12.62Z" fill="#fff" opacity="0.1" style="isolation:isolate"/>
<path d="M475.58,396.33s-3.41,13.12-6.73,26a44.83,44.83,0,0,0-1,4.71c-.23,1.58-.9,3.84-2.79,2.17C462.31,426.75,466.84,409.92,475.58,396.33Z" fill="#fff" opacity="0.1" style="isolation:isolate"/>
<path d="M377.74,510.31h0c-9.63,4.26-23.18,16.49-23.18,16.49C341.48,538.64,320.91,549,320.91,549c-10.37,5.82-19.86,16.82-19.86,16.82-18.84-4-27.06-31.35-29.76-43.61s22.64-23.26,29.76-26.79,4.14-4.56,4.14-4.56S290,495.66,282.5,493.8s-11.21,2.27-11.21,2.27a13.27,13.27,0,0,1-14.12,1,25.83,25.83,0,0,1-10.85-9.43l0,0a42,42,0,0,1-5.61-13.23c0-.11-.06-.21-.08-.31a61.6,61.6,0,0,1-1.5-10.85s0-.15-.07-.44a60.69,60.69,0,0,0-2-9.38,1.8,1.8,0,0,1,0-.19,20.39,20.39,0,0,0-1.25-3.47l0-.08a14.43,14.43,0,0,0-2.41-4.18c-5-8.4,13.09-10.28,13.09-10.28a71,71,0,0,1,27.4-6.24,68.73,68.73,0,0,0,28.09-8.7c-6,9.12,22.81,32.38,22.81,32.38l13.84,11.63c1.05.73,2.12,1.57,3.23,2.49h0C354.8,477.74,371.41,501.1,377.74,510.31Z" fill="#2f2e41" data-secondary="true"/>
<path d="M235.74,449.79a20.39,20.39,0,0,1,1.25,3.47C236.56,451.9,236.13,450.75,235.74,449.79Z" fill="none" stroke="#ed1c24" stroke-miterlimit="10" stroke-width="0.25"/>
<path d="M240.61,474.12a53.51,53.51,0,0,1-1.5-10.85A61.6,61.6,0,0,0,240.61,474.12Z" fill="none" stroke="#ed1c24" stroke-miterlimit="10" stroke-width="0.25"/>
<path d="M245.67,466.74a24.8,24.8,0,0,0,6.65,10.38c5.11,4.83,16,13.73,23.12,9.4,0,0,5.82-3.11-4.15-11.42,0,0-13.29-12.46-16.82-17.65,0,0,35.72,28.45,48.8,21.6,0,0,3.32-1.87-9.35-9.14,0,0-11.21-6-13.49-8.51,0,0,19.36,10.83,29.06,10.46a1.54,1.54,0,0,0,.92-2.75A64.61,64.61,0,0,0,298.08,462s13.7,2.91,17.86-3.53c0,0,5.6-4.57,0-10.17,0,0-19.62-20.71-14.07-28,0,0-17.29,6.95-15,13.53l11.42,11.69S279.05,430.05,269.72,431a4.24,4.24,0,0,0-3.22,6.32,13.29,13.29,0,0,0,4.79,4.31s-15.57-6.1-24.91-6.42c0,0-17.73,1.89-11.54,8.63a28.18,28.18,0,0,1,4.37,6,82.36,82.36,0,0,1,5.92,14.8A17.24,17.24,0,0,0,245.67,466.74Z" opacity="0.1" style="isolation:isolate"/>
<path d="M314.41,493.08s5.73-7.3,18.56-9.44c0,0,9.43-1.36,10.7-6.9,0,0,11.86,5.73-7.29,9.23,0,0-2.14.59,1.16,1.27,0,0,11.18.11,9.24,5.84,0,0,.09,4.75-10.5.67,0,0,14.12,5.43,10.74,10.53a2.28,2.28,0,0,1-1.25.93c-1.56.44-5.66.58-14.8-4.36C331,500.85,320.73,494.35,314.41,493.08Z" opacity="0.1" style="isolation:isolate"/>
<path d="M294.88,516.09s-10.32-3.27-3.85-9.88c0,0,5.66-7,22.88-3.92,0,0,21.55,3.49,25.46,10a2.17,2.17,0,0,1-2,3.28c-1.87-.06-5.1-.73-10.64-3,0,0-18.67-7.19-26.08-3.41,0,0,26.59,8,30.66,17.16a2,2,0,0,1-1.42,2.77c-2.48.61-7.53,1.16-16.16-.68l-12.06-4s6.9,6.55,15,9.59a.13.13,0,0,1,0,.25c-2.31.58-14.64,3.24-25.2-3.45l-6.24-3s10.21,8.85,17,12.57a3.22,3.22,0,0,1,1.73,2.9c-.05,1.24-.87,2.55-4,2.78a13.08,13.08,0,0,1-9.81-3.61c-6.26-5.87-17.95-18.38-5.48-19.65C284.71,522.85,278.89,514.86,294.88,516.09Z" opacity="0.1" style="isolation:isolate"/>
<path d="M290,560.14c-6.38.63-12.4,9.92-12.4,9.92a52.92,52.92,0,0,1-5,6.8,8.33,8.33,0,0,1-1.8,1.1c-5.13,2.35-13.42,1.23-13.42,1.23A16.52,16.52,0,0,1,248,572.7c-4.41-6.36-3.87-15.07-3.33-19a5.66,5.66,0,0,1,2.39-3.91l0,0h0a30.71,30.71,0,0,1,5.09-2.61,14.32,14.32,0,0,0,2.2-1.38,12.59,12.59,0,0,0,4.26-6.44c2.46-7.92,12.65-17.1,12.65-17.1C277.34,550.81,290,560.14,290,560.14Z" fill="#f9b499"/>
<path d="M290,560.14c-6.38.63-12.4,9.92-12.4,9.92a52.92,52.92,0,0,1-5,6.8c-4.65,3.76-15.22,2.33-15.22,2.33A16.52,16.52,0,0,1,248,572.7c.59-9,4.52-11.93,4.52-11.93-1.15,11.32,14.63,3.93,14.63,3.93,3.32-2-3.15-7.22-3.15-7.22-4.68-4-3.39-8.71-2.36-11a.29.29,0,0,1,.55.1c.16,2.13,1.92,4.45,3.31,5.95a36.25,36.25,0,0,1,2.53,3c4.63,6.42,11.17,2.22,11.17,2.22,3.22-2.29-1.91-11.66-1.91-11.66-7.87-12.66-6-23.91-6-23.91C277.34,550.81,290,560.14,290,560.14Z" fill="#f7a48b"/>
<path d="M270.78,578a47.82,47.82,0,0,1-11.58,9.24c-14,8.4-31.79,12.78-31.79,12.78-26.42,7.54-26.74,8.85-26.74,8.85-3.12,4.6-5.58,2.13-5.58,2.13-2-2.29-3.45.5-3.45.5-1.14,3.77-4.26,1.15-4.26,1.15a5.33,5.33,0,0,0-4.1,2.13,12,12,0,0,1-2.26,3l-.06.06a14.31,14.31,0,0,1-8.51,3.78c1.15-4.42-5.41-10.5-5.41-10.5-3.62-5.74-6.56-4.92-6.56-4.92l3.6-6.56c3.77-5.26,6.4-1.81,6.4-1.81,3.45,2.3,7.22-.82,7.22-.82a12.2,12.2,0,0,1,1.74-2.1l.05,0c2.69-2.51,5.1-2,5.1-2,11.15-.49,30.18-28.38,30.18-28.38,4-5.42,14.91-9.66,22.92-12.17,5.12-1.61,9.08-2.52,9.38-2.59l0,0a5.71,5.71,0,0,0-2.38,3.9c-.54,3.93-1.09,12.64,3.33,19a16.52,16.52,0,0,0,9.37,6.49S265.65,580.31,270.78,578Z" fill="#0071f2" data-primary="true"/>
<path d="M181,617.85c-.16.19-.32.38-.5.57l-.16.17a30.81,30.81,0,0,1-8.8,6.13c-7.5,5.31-16,16-16,16-6.11,7.54-10,9.35-10,9.35-27.78,13.28-32.92-2.52-32.92-2.52-3.23-5,1.35-12.69,8.24-20.25l0,0c11.1-12.19,28.18-24.08,28.18-24.08,11.5-14.72,24.6-7.35,24.6-7.35,2.82,1.32,5.41-.64,5.79-1a12.2,12.2,0,0,0-1.74,2.1s-3.77,3.12-7.22.82c0,0-2.63-3.45-6.4,1.81l-3.6,6.56s2.94-.82,6.56,4.92c0,0,6.56,6.08,5.41,10.5A14.31,14.31,0,0,0,181,617.85Z" fill="#2f2e41" data-secondary="true"/>
<path d="M180.3,618.59a30.81,30.81,0,0,1-8.8,6.13c-7.5,5.31-16,16-16,16-6.11,7.54-10,9.35-10,9.35-27.78,13.28-32.92-2.52-32.92-2.52-3.23-5,1.35-12.69,8.24-20.25-.45.59-11.06,14.44-1,19.71,0,0,19.92,7.36,27.46-6.82,0,0,11.23-13.45,25.19-18.58A11,11,0,0,0,180.3,618.59Z" opacity="0.1" style="isolation:isolate"/>
<path d="M270.78,578a47.82,47.82,0,0,1-11.58,9.24c-25.32-5.13-23.41-26.26-21.51-34.83,5.12-1.61,9.08-2.52,9.38-2.59l0,0a5.71,5.71,0,0,0-2.38,3.9c-.54,3.93-1.09,12.64,3.33,19a16.52,16.52,0,0,0,9.37,6.49S265.65,580.31,270.78,578Z" opacity="0.1" style="isolation:isolate"/>
<path d="M233.53,565.85s-16.63,10.59-22.08,15.8c0,0-11.37,12.43-24.17,12.37a8.35,8.35,0,0,0-9.58,3,7.09,7.09,0,0,1-5.38,1.58s-11.26,2.18-8.35,5.69a3.53,3.53,0,0,0,2.25,1.16,33.74,33.74,0,0,0,8.44-.29s-9.55,1.25-4.43,4.71c0,0,11.22,2.63,10.73-5.26,0,0,3,6.51,6.3,3.6,0,0,.83-1.38-1.11-2.77,0,0-5.8-5.67-5.19-8,0,0,6.16,10.25,16.13,7.06l44.44-23.81S235.31,577.29,233.53,565.85Z" opacity="0.1" style="isolation:isolate"/>
<path d="M246.32,487.68c-10.77,3.68-17.48,2.11-20.45.9a17.76,17.76,0,0,0-6.59-1.39,16.24,16.24,0,0,0-4.42.49c-8.57-4.75-11.68-10.9-12.25-16.68-.92-9.31,4.7-17.65,4.7-17.65,21.47,1.52,28-3.36,28.38-3.64h0l0,.08a20.39,20.39,0,0,1,1.25,3.47,1.8,1.8,0,0,0,0,.19c1,3.54,1.76,8,2,9.38,0,.29.07.44.07.44a61.6,61.6,0,0,0,1.5,10.85c0,.1,0,.2.08.31,2.06,8.65,5.34,12.88,5.61,13.23Z" fill="#f9b499"/>
<path d="M246.32,487.68c-10.77,3.68-17.49,2.11-20.45.9a17.8,17.8,0,0,0-6.59-1.39,15.76,15.76,0,0,0-4.42.49c-8.57-4.75-11.68-10.9-12.25-16.68,0,0,10.5,13.91,17.79,3.7.72-1,.58-6.69-3.4-10.81.3.08,5.13,1.56,10,10.66,0,0,3.27,5.8,7.11,2.19,0,0,3.13-2,.85-12.86,0,0-2.88-8,.77-14.17h0l0,.08a20.39,20.39,0,0,1,1.25,3.47,1.8,1.8,0,0,0,0,.19,60.69,60.69,0,0,1,2,9.38c0,.29.07.44.07.44a61.6,61.6,0,0,0,1.5,10.85c0,.1,0,.2.08.31a42,42,0,0,0,5.61,13.23Z" fill="#f7a48b"/>
<path d="M214.86,487.68a28.91,28.91,0,0,1-9.18,5.75c-12.36,4.86-25.57,1-25.57,1-14-2.37-19.57-1.69-20.87-1.45a.74.74,0,0,0-.48.33,4.32,4.32,0,0,1-6,1.53.76.76,0,0,0-1,.31c-1.85,3.56-5.37,2.78-7,2.2a.77.77,0,0,0-1,.53c-1.32,5-4.9,2.23-6.2,1a.65.65,0,0,0-.94.08c-3.9,4.59-12.81,6.49-12.81,6.49,1.18-3,.28-6.47-1.21-9.55a37.43,37.43,0,0,0-5.68-8.24l7.4-4.43c6.38-5.33,8.62-2.57,8.62-2.57,2.41,2.23,2.75-.87,2.75-.87.69-4.82,7.07-3.79,7.07-3.79,1.2,0,3.44-1.9,3.44-1.9C161.27,458.3,185,454.44,198,453.56a84.84,84.84,0,0,1,9.35-.21s-5.62,8.34-4.7,17.65C203.18,476.78,206.29,482.93,214.86,487.68Z" fill="#0071f2" data-primary="true"/>
<path d="M214.86,487.68a28.91,28.91,0,0,1-9.18,5.75c-17.81-17.22-10.92-34.15-7.72-39.87a84.84,84.84,0,0,1,9.35-.21s-5.62,8.34-4.7,17.65C203.18,476.78,206.29,482.93,214.86,487.68Z" opacity="0.1" style="isolation:isolate"/>
<path d="M196,479.39c-4,3.71-18.77,1.11-18.77,1.11a121.33,121.33,0,0,0-22.39,2.07c-6.2,5-9.3,0-9.3,0-1.35,10.8-7.66,1.27-7.91.87,4.47,10.32,1,10,1,10-4,2.25-8.44-6.55-8.44-6.55.35,7.92-7.57,9-7.57,9h0a37.43,37.43,0,0,0-5.68-8.24l7.4-4.43c6.38-5.33,8.62-2.57,8.62-2.57,2.41,2.23,2.75-.87,2.75-.87.69-4.82,7.07-3.79,7.07-3.79,1.2,0,3.44-1.9,3.44-1.9C161.27,458.3,185,454.44,198,453.56,190.33,467.6,196,479.39,196,479.39Z" opacity="0.1" style="isolation:isolate"/>
<ellipse cx="490.2" cy="319.51" rx="6.08" ry="10.66" fill="#f9b499"/>
<g id="b7de7b99-94b1-4ac5-b947-eb25cf2c5b8e" data-name="freepik--Ball--inject-652">
<circle cx="649.79" cy="203.91" r="36.06" transform="translate(46.13 519.19) rotate(-45)" fill="#fff"/>
<path d="M649.79,240.85a36.94,36.94,0,1,1,36.94-36.94A36.94,36.94,0,0,1,649.79,240.85Zm0-72.12A35.19,35.19,0,1,0,685,203.91a35.18,35.18,0,0,0-35.19-35.18Z" fill="#2f2e41" data-secondary="true"/>
<path d="M655.32,186.06l-1,16.12-16.82,4.5-8-12.83,10-13Zm23.93,20-13,5.71s-3.3,12.14-4,15.09c3.47,1.33,7.62,3,11.3,3.56,0,0,7.5-7.85,9.24-12.88C682.81,217.65,680.65,208.76,679.25,206.1Zm-31.19,26s-10.77-8-13.36-10.5c0,0-9.19,1.56-11.62,1.56a32.2,32.2,0,0,0,5.25,10.24,31.28,31.28,0,0,0,14.91,5.37Zm-10.24-59.81A50.07,50.07,0,0,1,649,167.8a35.8,35.8,0,0,0-18.52,5.58,30.37,30.37,0,0,1,7.34-1Zm41.08,19.26,3.61-2.86a36.26,36.26,0,0,0-14.86-16.16l-3-.42s3.13,7,2.61,9.19a64.31,64.31,0,0,1,11.6,10.32Zm-64.49,19.37a3.57,3.57,0,0,0,1.56-.14,37.82,37.82,0,0,1,2.78-14.56,54.5,54.5,0,0,1-1.26-8.42,35.9,35.9,0,0,0-3.78,16.05,36.39,36.39,0,0,0,.7,7.14Z" fill="#2f2e41" data-secondary="true"/>
<polygon points="636.74 171.6 638.45 171.25 640.99 183.09 639.27 183.44 636.74 171.6" fill="#2f2e41" data-secondary="true"/>
<polygon points="652.61 186.24 668.56 180.04 669.19 181.67 653.25 187.87 652.61 186.24" fill="#2f2e41" data-secondary="true"/>
<path d="M679.89,208.8l-1.75-.12a150.73,150.73,0,0,0-.36-19l1.75-.23A145.48,145.48,0,0,1,679.89,208.8Z" fill="#2f2e41" data-secondary="true"/>
<polygon points="652.39 201.76 653.5 200.4 669.19 213.19 668.09 214.55 652.39 201.76" fill="#2f2e41" data-secondary="true"/>
<polygon points="633.59 222.35 636.91 205.06 638.63 205.38 635.31 222.67 633.59 222.35" fill="#2f2e41" data-secondary="true"/>
<path d="M645.71,233.88l-.48-1.75c4.8-1.37,16.73-5.69,18.16-6.86l1.12,1.34C662.34,228.47,647,233.53,645.71,233.88Z" fill="#2f2e41" data-secondary="true"/>
<polygon points="618.57 195.43 631.88 192.56 632.26 194.27 617.31 197.51 618.57 195.43" fill="#2f2e41" data-secondary="true"/>
<path d="M624.59,226.72c-3.2-3.72-7.83-11-9.44-15.6L616,209a57,57,0,0,0,8.59,14.71Z" fill="#2f2e41" data-secondary="true"/>
</g>
</svg>